<svg width="48" height="57" viewBox="0 0 48 57" fill="none" xmlns="http://www.w3.org/2000/svg">
<path fill-rule="evenodd" clip-rule="evenodd" d="M15 9C15 4.02944 19.0294 0 24 0C28.9706 0 33 4.02944 33 9V10.5C33 16.299 28.299 21 22.5 21H3C1.34315 21 0 19.6569 0 18C0 16.3431 1.34315 15 3 15H22.5C24.9853 15 27 12.9853 27 10.5V9C27 7.34315 25.6569 6 24 6C22.3431 6 21 7.34315 21 9V9.81818C21 11.475 19.6569 12.8182 18 12.8182C16.3431 12.8182 15 11.475 15 9.81818V9ZM27 46.5C27 52.299 31.701 57 37.5 57C43.299 57 48 52.299 48 46.5V45C48 38.3726 42.6274 33 36 33H6C4.34315 33 3 34.3432 3 36C3 37.6569 4.34315 39 6 39H36C39.3137 39 42 41.6863 42 45V46.5C42 48.9853 39.9853 51 37.5 51C35.0147 51 33 48.9853 33 46.5V45C33 43.3432 31.6569 42 30 42C28.3431 42 27 43.3432 27 45V46.5ZM9 24C7.34314 24 6 25.3431 6 27C6 28.6569 7.34314 30 9 30H39C40.6569 30 42 28.6569 42 27C42 25.3431 40.6569 24 39 24H9Z" fill="#EEEEEE"/>
</svg>
